<svg width="310" height="131" viewBox="0 0 310 131" fill="none" xmlns="http://www.w3.org/2000/svg">
<path d="M5.39733 128.863C5.39733 128.863 -1.33255 118.665 1.87954 106.444C5.09605 94.2229 13.35 84.8792 10.6873 70.7365C7.52395 53.9401 14.9317 39.7771 28.0459 41.6021C50.021 44.6675 65.8245 25.6039 73.8658 23.6975C97.6928 18.0496 102.039 38.6993 114.901 40.7125C142.658 45.0539 151.235 58.9526 150.243 85.6061C149.915 94.3754 171.168 111.934 158.966 128.863H5.39733Z" fill="#F1F1F1"/>
<path d="M163.513 107.58C162.602 107.389 161.659 108.007 161.176 108.728C161.114 108.821 161.114 108.913 161.15 108.985C160.748 109.217 160.352 109.464 159.971 109.727C160.053 109.454 160.084 109.16 160.038 108.888C159.966 108.435 159.61 108.007 159.116 108.043C158.663 108.079 158.365 108.522 158.359 108.955C158.349 109.495 158.668 110.025 158.993 110.442C158.349 110.942 157.742 111.477 157.17 112.049C157.392 111.225 157.201 110.242 156.228 110.175C154.797 110.077 155.883 112.378 156.223 112.914C156.228 112.919 156.233 112.924 156.238 112.929C156.218 112.975 156.213 113.027 156.218 113.078C155.811 113.542 155.435 114.026 155.075 114.525C154.807 113.681 154.241 112.152 153.484 112.831C152.573 113.645 153.958 114.839 154.483 115.395C154.174 115.879 153.886 116.373 153.618 116.883C153.165 116.492 153.134 115.745 152.712 115.307C152.326 114.906 151.471 114.664 151.049 115.158C150.647 115.627 151.121 116.409 151.43 116.806C151.857 117.351 152.46 117.722 153.139 117.866C152.851 118.484 152.604 119.122 152.382 119.771C152.166 119.261 151.919 118.68 151.471 118.412C151.044 118.154 150.483 118.247 150.246 118.705C149.7 119.756 151.034 120.826 151.929 121.212C151.929 121.228 151.929 121.243 151.929 121.259C151.795 121.784 151.677 122.319 151.584 122.855C151.358 122.561 151.095 122.294 150.771 122.113C150.385 121.907 149.824 121.799 149.463 122.119C149.098 122.438 149.237 122.963 149.571 123.241C150.014 123.612 150.699 123.781 151.25 123.874C151.322 123.884 151.384 123.874 151.445 123.848C151.296 125.105 151.26 126.386 151.368 127.668C151.399 128.054 152.007 128.06 151.976 127.668C151.868 126.35 151.904 125.038 152.068 123.751C152.604 123.735 155.25 123.55 154.467 122.618C154.195 122.294 153.458 122.304 153.093 122.371C152.702 122.443 152.46 122.685 152.197 122.911C152.285 122.407 152.393 121.907 152.521 121.418C153.355 121.254 155.806 120.698 154.905 119.817C154.56 119.483 153.798 119.56 153.397 119.714C153.237 119.776 153.093 119.869 152.964 119.972C153.191 119.313 153.443 118.669 153.736 118.041C154.339 118.226 156.928 118.551 156.635 117.31C156.434 116.476 155.065 116.831 154.158 117.161C154.406 116.697 154.668 116.239 154.946 115.797C154.951 115.797 154.951 115.797 154.951 115.797C155.461 116.337 155.95 116.399 156.686 116.296C157.191 116.224 158.092 116.116 158.231 115.498C158.375 114.854 157.664 114.751 157.201 114.695C156.578 114.612 156.048 114.726 155.518 114.942C155.888 114.422 156.285 113.923 156.702 113.444C157.211 113.675 157.742 113.876 158.303 113.876C158.73 113.876 159.415 113.768 159.497 113.243C159.647 112.301 158.519 112.321 157.598 112.491C158.107 111.982 158.648 111.498 159.214 111.045C159.229 111.065 159.245 111.081 159.266 111.096C159.688 111.41 160.136 111.724 160.666 111.807C161.145 111.884 161.551 111.724 161.974 111.503C162.087 111.441 162.149 111.287 162.113 111.158C161.907 110.478 160.918 110.355 160.136 110.36C160.563 110.061 161.001 109.773 161.459 109.511C161.474 109.5 161.484 109.485 161.5 109.474C161.757 109.603 162.102 109.655 162.303 109.68C162.751 109.732 163.158 109.593 163.492 109.294C163.75 109.063 164.125 108.671 164.151 108.306C164.177 107.92 163.853 107.652 163.513 107.58Z" fill="#A2A54C"/>
<path d="M134.4 107.58C135.311 107.389 136.253 108.007 136.737 108.728C136.799 108.821 136.799 108.913 136.763 108.985C137.164 109.217 137.561 109.464 137.942 109.727C137.859 109.454 137.828 109.16 137.875 108.888C137.942 108.435 138.302 108.007 138.796 108.043C139.249 108.079 139.548 108.522 139.553 108.955C139.563 109.495 139.249 110.025 138.92 110.442C139.563 110.942 140.171 111.477 140.742 112.049C140.521 111.225 140.711 110.242 141.684 110.175C143.116 110.077 142.029 112.378 141.689 112.914C141.684 112.919 141.679 112.924 141.674 112.929C141.695 112.975 141.7 113.027 141.695 113.078C142.101 113.542 142.477 114.026 142.838 114.525C143.105 113.681 143.672 112.152 144.428 112.831C145.34 113.645 143.955 114.839 143.43 115.395C143.738 115.879 144.027 116.373 144.294 116.883C144.748 116.492 144.778 115.745 145.201 115.307C145.587 114.906 146.441 114.664 146.863 115.158C147.265 115.627 146.791 116.409 146.482 116.806C146.055 117.351 145.453 117.722 144.773 117.866C145.062 118.484 145.309 119.122 145.53 119.771C145.746 119.261 145.993 118.68 146.441 118.412C146.869 118.154 147.43 118.247 147.667 118.705C148.212 119.756 146.879 120.826 145.983 121.212C145.983 121.228 145.983 121.243 145.983 121.259C146.122 121.784 146.235 122.319 146.328 122.855C146.555 122.561 146.817 122.294 147.141 122.113C147.528 121.907 148.089 121.799 148.449 122.119C148.815 122.438 148.676 122.963 148.341 123.241C147.898 123.612 147.219 123.781 146.663 123.874C146.591 123.884 146.529 123.874 146.472 123.848C146.621 125.105 146.658 126.386 146.549 127.668C146.518 128.054 145.911 128.06 145.942 127.668C146.05 126.35 146.014 125.038 145.849 123.751C145.314 123.735 142.668 123.55 143.45 122.618C143.723 122.294 144.459 122.304 144.825 122.371C145.216 122.443 145.458 122.685 145.721 122.911C145.633 122.407 145.525 121.907 145.396 121.418C144.562 121.254 142.112 120.698 143.013 119.817C143.357 119.483 144.114 119.56 144.521 119.714C144.681 119.776 144.82 119.869 144.953 119.972C144.727 119.313 144.475 118.669 144.181 118.041C143.579 118.226 140.989 118.551 141.283 117.31C141.484 116.476 142.853 116.831 143.759 117.161C143.512 116.697 143.249 116.239 142.971 115.797C142.971 115.797 142.966 115.797 142.961 115.797C142.451 116.332 141.967 116.399 141.231 116.296C140.727 116.224 139.826 116.116 139.687 115.498C139.543 114.854 140.253 114.751 140.716 114.695C141.339 114.612 141.87 114.726 142.4 114.942C142.029 114.422 141.633 113.923 141.216 113.444C140.706 113.675 140.176 113.876 139.615 113.876C139.187 113.876 138.503 113.768 138.42 113.243C138.276 112.301 139.399 112.321 140.32 112.491C139.81 111.982 139.27 111.498 138.703 111.045C138.688 111.065 138.673 111.081 138.652 111.096C138.23 111.41 137.782 111.724 137.252 111.807C136.773 111.884 136.366 111.724 135.944 111.503C135.831 111.441 135.769 111.287 135.805 111.158C136.011 110.478 136.999 110.355 137.782 110.36C137.355 110.061 136.917 109.773 136.459 109.511C136.443 109.5 136.433 109.485 136.418 109.474C136.16 109.603 135.815 109.655 135.615 109.68C135.167 109.732 134.76 109.593 134.425 109.294C134.168 109.063 133.792 108.671 133.766 108.306C133.735 107.92 134.06 107.652 134.4 107.58Z" fill="#A2A54C"/>
<path d="M154.684 102.921C154.437 102.952 154.205 103.019 153.978 103.106C154.143 102.859 154.303 102.607 154.478 102.36C154.576 102.39 154.684 102.375 154.761 102.282C155.245 101.695 157.232 99.6928 155.713 99.1111C155.219 98.9206 154.684 99.1625 154.406 99.5847C153.968 100.244 154.174 101.067 153.958 101.788C153.932 101.881 153.942 101.958 153.983 102.015C153.762 102.329 153.551 102.653 153.345 102.972C153.263 102.535 153.129 102.066 152.856 101.768C152.573 101.459 152.094 101.448 151.862 101.824C151.394 102.586 152.068 103.518 152.784 103.868C152.573 104.218 152.372 104.573 152.176 104.929C151.971 104.594 151.749 104.239 151.456 104.007C151.157 103.775 150.689 103.719 150.411 104.017C150.112 104.337 150.236 104.795 150.503 105.083C150.822 105.428 151.286 105.649 151.734 105.757C151.389 106.427 151.08 107.111 150.786 107.801C150.591 107.317 150.359 106.849 150.014 106.452C149.772 106.174 149.165 105.541 148.748 105.809C148.259 106.118 148.542 107.003 148.789 107.369C149.18 107.945 149.71 108.398 150.323 108.718C150.349 108.733 150.375 108.738 150.4 108.743C150.194 109.284 150.004 109.835 149.829 110.386C149.484 109.665 148.882 108.764 148.197 109.387C147.275 110.226 148.748 111.179 149.324 111.606C149.329 111.611 149.34 111.606 149.345 111.611C149.345 111.683 149.366 111.75 149.417 111.807C149.288 112.296 149.175 112.785 149.072 113.279C148.691 112.569 147.95 111.693 147.383 112.357C146.652 113.217 148.181 114.118 148.856 114.37C148.743 114.988 148.655 115.606 148.583 116.229C148.073 115.503 146.93 114.185 146.622 115.39C146.472 115.972 146.761 116.445 147.131 116.862C147.502 117.279 147.893 117.645 148.429 117.82C148.382 118.499 148.362 119.184 148.362 119.869C148.125 119.586 147.842 119.349 147.522 119.138C147.208 118.927 146.709 118.51 146.292 118.602C145.334 118.824 145.999 120.26 146.39 120.677C146.735 121.043 147.79 121.593 148.387 121.336C148.413 121.974 148.47 122.613 148.542 123.251C148.197 122.989 147.816 122.783 147.399 122.654C147.172 122.582 146.786 122.469 146.493 122.53C146.287 122.494 146.091 122.551 145.937 122.814C145.195 124.065 147.898 124.461 148.712 124.554C148.856 125.516 149.041 126.469 149.283 127.421C149.381 127.797 149.963 127.637 149.87 127.262C149.623 126.299 149.432 125.331 149.288 124.358C150.035 124.054 151.08 123.395 150.658 122.613C150.266 121.887 149.613 122.484 149.134 123.066C149.072 122.469 149.021 121.866 148.995 121.269C149.53 121.13 150.024 120.852 150.411 120.456C150.73 120.121 151.193 119.539 150.961 119.045C150.735 118.561 150.117 118.602 149.752 118.88C149.443 119.117 149.185 119.477 148.969 119.853C148.974 119.21 148.99 118.566 149.031 117.928C149.86 117.717 152.249 116.769 151.085 115.812C150.369 115.22 149.695 115.632 149.185 116.25C149.263 115.616 149.355 114.983 149.474 114.36C150.035 114.195 150.72 114.149 151.219 113.845C151.548 113.645 151.878 113.161 151.662 112.774C151.451 112.393 150.884 112.589 150.581 112.728C150.246 112.877 149.968 113.109 149.68 113.33C149.783 112.867 149.885 112.404 150.009 111.946C150.879 111.956 152.496 111.786 152.228 110.823C152.104 110.37 151.461 110.319 151.075 110.386C150.822 110.427 150.596 110.535 150.385 110.664C150.534 110.195 150.694 109.727 150.864 109.263C151.487 109.366 152.249 109.423 152.789 109.124C153.134 108.934 153.829 108.259 153.597 107.832C153.314 107.307 152.547 107.389 152.089 107.523C151.873 107.585 151.672 107.662 151.476 107.75C151.734 107.163 152.001 106.576 152.295 106.005C152.305 105.999 152.31 105.999 152.321 105.994C152.439 106.092 152.604 106.144 152.753 106.174C153.196 106.267 153.695 106.329 154.148 106.277C154.421 106.247 154.694 106.108 154.699 105.793C154.704 105.515 154.442 105.32 154.231 105.181C153.778 104.882 153.268 104.908 152.789 105.078C152.954 104.784 153.113 104.496 153.283 104.208C153.314 104.203 153.34 104.182 153.366 104.167C153.973 104.439 154.673 104.573 155.327 104.383C155.754 104.259 156.166 103.873 156.017 103.389C155.847 102.844 155.126 102.869 154.684 102.921Z" fill="#CCCC60"/>
<path d="M73.3622 107.58C72.4509 107.389 71.5088 108.007 71.0249 108.728C70.9631 108.821 70.9631 108.913 70.9992 108.985C70.5976 109.217 70.2012 109.464 69.8202 109.727C69.9026 109.454 69.9335 109.16 69.8871 108.888C69.815 108.435 69.4598 108.007 68.9656 108.043C68.5126 108.079 68.214 108.522 68.2088 108.955C68.1985 109.495 68.5126 110.025 68.842 110.442C68.1985 110.942 67.591 111.477 67.0196 112.049C67.241 111.225 67.0505 110.242 66.0774 110.175C64.6462 110.077 65.7325 112.378 66.0723 112.914C66.0774 112.919 66.0826 112.924 66.0878 112.929C66.0672 112.975 66.062 113.027 66.0671 113.078C65.6604 113.542 65.2846 114.026 64.9242 114.525C64.6565 113.681 64.0902 112.152 63.3334 112.831C62.4222 113.645 63.8071 114.839 64.3322 115.395C64.0233 115.879 63.735 116.373 63.4673 116.883C63.0142 116.492 62.9834 115.745 62.5612 115.307C62.1751 114.906 61.3205 114.664 60.8983 115.158C60.4968 115.627 60.9704 116.409 61.2793 116.806C61.7066 117.351 62.3089 117.722 62.9885 117.866C62.7002 118.484 62.4582 119.122 62.2317 119.771C62.0155 119.261 61.7684 118.68 61.3205 118.412C60.8932 118.154 60.332 118.247 60.0952 118.705C59.5495 119.756 60.8829 120.826 61.7787 121.212C61.7787 121.228 61.7787 121.243 61.7787 121.259C61.6448 121.784 61.5264 122.319 61.4337 122.855C61.2072 122.561 60.9446 122.294 60.6203 122.113C60.2342 121.907 59.673 121.799 59.3127 122.119C58.9471 122.438 59.0862 122.963 59.4208 123.241C59.8635 123.612 60.5431 123.781 61.0991 123.874C61.1712 123.884 61.233 123.874 61.2896 123.848C61.1403 125.105 61.1043 126.386 61.2124 127.668C61.2433 128.054 61.8507 128.06 61.8199 127.668C61.7117 126.35 61.7478 125.038 61.9125 123.751C62.4479 123.735 65.0941 123.55 64.3116 122.618C64.0388 122.294 63.3025 122.304 62.937 122.371C62.5457 122.443 62.3038 122.685 62.0412 122.911C62.1287 122.407 62.2369 121.907 62.3656 121.418C63.1996 121.254 65.6501 120.698 64.7492 119.817C64.4043 119.483 63.6475 119.56 63.2408 119.714C63.0812 119.776 62.9422 119.869 62.8083 119.972C63.0348 119.313 63.2871 118.669 63.5805 118.041C64.1829 118.226 66.7724 118.551 66.479 117.31C66.2782 116.476 64.9088 116.831 64.0078 117.161C64.255 116.697 64.5175 116.239 64.7955 115.797C64.8007 115.797 64.8007 115.797 64.8058 115.797C65.3155 116.332 65.7994 116.399 66.5356 116.296C67.0402 116.224 67.9411 116.116 68.0801 115.498C68.2243 114.854 67.5138 114.751 67.0556 114.695C66.4327 114.612 65.9024 114.726 65.3721 114.942C65.7428 114.422 66.1341 113.923 66.5562 113.444C67.0659 113.675 67.5962 113.876 68.1573 113.876C68.5846 113.876 69.2693 113.768 69.3517 113.243C69.501 112.301 68.3735 112.321 67.452 112.491C67.9617 111.982 68.5023 111.498 69.0686 111.045C69.084 111.065 69.0994 111.081 69.12 111.096C69.5422 111.41 69.9901 111.724 70.5204 111.807C70.9992 111.884 71.4059 111.724 71.828 111.503C71.9413 111.441 72.0031 111.287 71.967 111.158C71.7611 110.478 70.7726 110.355 69.9952 110.36C70.4225 110.061 70.8601 109.773 71.3183 109.511C71.3338 109.5 71.3441 109.485 71.3595 109.474C71.6169 109.603 71.9619 109.655 72.1627 109.68C72.6106 109.732 73.0173 109.593 73.3519 109.294C73.6093 109.063 73.9851 108.671 74.0109 108.306C74.0263 107.92 73.702 107.652 73.3622 107.58Z" fill="#A2A54C"/>
<path d="M44.2491 107.58C45.1603 107.389 46.1024 108.007 46.5864 108.728C46.6481 108.821 46.6481 108.913 46.6121 108.985C47.0137 109.217 47.4101 109.464 47.791 109.727C47.7087 109.454 47.6778 109.16 47.7241 108.888C47.7962 108.435 48.1514 108.007 48.6457 108.043C49.0987 108.079 49.3973 108.522 49.4024 108.955C49.4127 109.495 49.0987 110.025 48.7692 110.442C49.4127 110.942 50.0202 111.477 50.5917 112.049C50.3703 111.225 50.5608 110.242 51.5338 110.175C52.965 110.077 51.8788 112.378 51.539 112.914C51.5338 112.919 51.5287 112.924 51.5235 112.929C51.5441 112.975 51.5493 113.027 51.5441 113.078C51.9508 113.542 52.3266 114.026 52.687 114.525C52.9547 113.681 53.521 112.152 54.2778 112.831C55.1891 113.645 53.8042 114.839 53.2791 115.395C53.588 115.879 53.8763 116.373 54.144 116.883C54.597 116.492 54.6279 115.745 55.0501 115.307C55.4362 114.906 56.2908 114.664 56.7129 115.158C57.1145 115.627 56.6409 116.409 56.332 116.806C55.9047 117.351 55.3023 117.722 54.6228 117.866C54.9111 118.484 55.153 119.122 55.3795 119.771C55.5958 119.261 55.8429 118.68 56.2908 118.412C56.7181 118.154 57.2792 118.247 57.5161 118.705C58.0618 119.756 56.7284 120.826 55.8326 121.212C55.8326 121.228 55.8326 121.243 55.8326 121.259C55.9664 121.784 56.0849 122.319 56.1775 122.855C56.4041 122.561 56.6666 122.294 56.9909 122.113C57.377 121.907 57.9382 121.799 58.2986 122.119C58.6641 122.438 58.5251 122.963 58.1956 123.241C57.7529 123.612 57.0682 123.781 56.5173 123.874C56.4452 123.884 56.3834 123.874 56.3268 123.848C56.4761 125.105 56.507 126.386 56.4041 127.668C56.3732 128.054 55.7656 128.06 55.7965 127.668C55.9046 126.35 55.8686 125.038 55.7039 123.751C55.1685 123.735 52.5223 123.55 53.2997 122.618C53.5725 122.294 54.3087 122.304 54.6742 122.371C55.0655 122.443 55.3075 122.685 55.57 122.911C55.4825 122.407 55.3744 121.907 55.2457 121.418C54.4117 121.254 51.956 120.698 52.8621 119.817C53.207 119.483 53.9689 119.56 54.3705 119.714C54.5301 119.776 54.6742 119.869 54.8029 119.972C54.5764 119.313 54.3241 118.669 54.0307 118.041C53.4284 118.226 50.8388 118.551 51.1322 117.31C51.333 116.476 52.7024 116.831 53.6085 117.161C53.3614 116.697 53.0989 116.239 52.8209 115.797C52.8157 115.797 52.8157 115.797 52.8106 115.797C52.3009 116.332 51.817 116.399 51.0808 116.296C50.5762 116.224 49.6753 116.116 49.5363 115.498C49.3922 114.854 50.1026 114.751 50.5659 114.695C51.1889 114.612 51.7192 114.726 52.2494 114.942C51.8788 114.422 51.4823 113.923 51.0653 113.444C50.5556 113.675 50.0254 113.876 49.4642 113.876C49.0369 113.876 48.3522 113.768 48.2698 113.243C48.1205 112.301 49.248 112.321 50.1695 112.491C49.6598 111.982 49.1193 111.498 48.553 111.045C48.5376 111.065 48.5221 111.081 48.5015 111.096C48.0793 111.41 47.6315 111.724 47.1012 111.807C46.6224 111.884 46.2157 111.724 45.7935 111.503C45.6803 111.441 45.6185 111.287 45.6545 111.158C45.8605 110.478 46.8489 110.355 47.6263 110.36C47.199 110.061 46.7614 109.773 46.3032 109.511C46.2878 109.5 46.2775 109.485 46.262 109.474C46.0046 109.603 45.6597 109.655 45.4589 109.68C45.011 109.732 44.6043 109.593 44.2697 109.294C44.0122 109.063 43.6364 108.671 43.6107 108.306C43.5798 107.92 43.9041 107.652 44.2491 107.58Z" fill="#A2A54C"/>
<path d="M64.5332 102.921C64.2861 102.952 64.0492 103.019 63.8279 103.106C63.9926 102.859 64.1522 102.607 64.3272 102.36C64.425 102.39 64.5331 102.375 64.6104 102.282C65.0943 101.695 67.0815 99.6928 65.5628 99.1111C65.0737 98.9206 64.5332 99.1625 64.2552 99.5847C63.8227 100.244 64.0235 101.067 63.8073 101.788C63.7815 101.881 63.797 101.958 63.833 102.015C63.6116 102.329 63.4005 102.653 63.1946 102.972C63.1122 102.535 62.9784 102.066 62.7056 101.768C62.4224 101.459 61.9436 101.448 61.7119 101.824C61.2435 102.586 61.9179 103.518 62.6335 103.868C62.4224 104.218 62.2216 104.573 62.026 104.929C61.8201 104.594 61.5987 104.239 61.3052 104.007C61.0066 103.775 60.5381 103.719 60.2601 104.017C59.9615 104.337 60.0851 104.795 60.3528 105.083C60.672 105.428 61.1353 105.649 61.5832 105.757C61.2383 106.427 60.9294 107.111 60.636 107.801C60.4403 107.317 60.2087 106.849 59.8637 106.452C59.6218 106.174 59.0143 105.541 58.5972 105.809C58.1133 106.118 58.3913 107.003 58.6384 107.369C59.0297 107.945 59.56 108.398 60.1726 108.718C60.1983 108.733 60.2241 108.738 60.2498 108.743C60.0439 109.284 59.8534 109.835 59.6784 110.386C59.3335 109.665 58.7311 108.764 58.0464 109.387C57.1248 110.226 58.5972 111.179 59.1738 111.606C59.179 111.611 59.1893 111.606 59.1945 111.611C59.1945 111.683 59.2151 111.75 59.2665 111.807C59.1378 112.296 59.0245 112.785 58.9164 113.279C58.5355 112.569 57.7941 111.693 57.2278 112.357C56.4968 113.217 58.0258 114.118 58.7002 114.37C58.587 114.988 58.4994 115.606 58.4222 116.229C57.9125 115.503 56.7696 114.185 56.4607 115.39C56.3115 115.972 56.5997 116.445 56.9704 116.862C57.3411 117.279 57.7324 117.645 58.2678 117.82C58.2214 118.499 58.2009 119.184 58.2009 119.869C57.964 119.586 57.6809 119.349 57.3617 119.138C57.0476 118.927 56.5483 118.51 56.1313 118.602C55.1737 118.824 55.8378 120.26 56.2291 120.677C56.574 121.043 57.6294 121.593 58.2266 121.336C58.2523 121.974 58.309 122.613 58.381 123.251C58.0361 122.989 57.6551 122.783 57.2381 122.654C57.0116 122.582 56.6255 122.469 56.332 122.53C56.1261 122.494 55.9305 122.551 55.776 122.814C55.0347 124.065 57.7375 124.461 58.5458 124.554C58.6899 125.516 58.8753 126.469 59.1172 127.421C59.215 127.797 59.7968 127.637 59.7041 127.262C59.457 126.299 59.2665 125.331 59.1224 124.358C59.874 124.054 60.9139 123.395 60.4918 122.613C60.1005 121.887 59.4467 122.484 58.9679 123.066C58.9062 122.469 58.8547 121.866 58.8289 121.269C59.3643 121.13 59.8586 120.852 60.2447 120.456C60.5639 120.121 61.0272 119.539 60.7955 119.045C60.569 118.561 59.9513 118.602 59.5857 118.88C59.2768 119.117 59.0194 119.477 58.8032 119.853C58.8083 119.21 58.8238 118.566 58.865 117.928C59.6938 117.717 62.0826 116.769 60.9191 115.812C60.2035 115.22 59.5239 115.632 59.0194 116.25C59.0966 115.616 59.1893 114.983 59.3077 114.36C59.8689 114.195 60.5536 114.149 61.053 113.845C61.3773 113.645 61.7119 113.161 61.4957 112.774C61.2846 112.393 60.7183 112.589 60.4146 112.728C60.08 112.877 59.8019 113.109 59.5136 113.33C59.6166 112.867 59.7196 112.404 59.8431 111.946C60.7132 111.956 62.3297 111.786 62.062 110.823C61.9385 110.37 61.2949 110.319 60.9088 110.386C60.6566 110.427 60.43 110.535 60.219 110.664C60.3682 110.195 60.5278 109.727 60.6977 109.263C61.3207 109.366 62.0826 109.423 62.6232 109.124C62.9681 108.934 63.6631 108.259 63.4314 107.832C63.1483 107.307 62.3812 107.389 61.923 107.523C61.7068 107.585 61.506 107.662 61.3104 107.75C61.5678 107.163 61.8355 106.576 62.129 106.005C62.1393 105.999 62.1444 105.999 62.1547 105.994C62.2731 106.092 62.4378 106.144 62.5871 106.174C63.0299 106.267 63.5293 106.329 63.9823 106.277C64.2552 106.247 64.528 106.108 64.5332 105.793C64.5383 105.515 64.2757 105.32 64.0647 105.181C63.6116 104.882 63.102 104.908 62.6232 105.078C62.7879 104.784 62.9475 104.496 63.1174 104.208C63.1431 104.203 63.174 104.182 63.1998 104.167C63.8073 104.439 64.5074 104.573 65.1612 104.383C65.5885 104.259 66.0004 103.873 65.8511 103.389C65.6967 102.844 64.9708 102.869 64.5332 102.921Z" fill="#CCCC60"/>
<path d="M162.035 128.523C162.035 129.666 125.761 130.592 81.0177 130.592C36.2744 130.592 0 129.666 0 128.523C0 127.38 36.2744 126.453 81.0177 126.453C125.761 126.458 162.035 127.38 162.035 128.523Z" fill="#EDF1F4"/>
<path d="M106.347 42.56H87.9678C88.3951 40.9538 89.9035 40.1146 91.2008 40.7427C91.8753 39.5843 92.7247 38.3282 93.8985 37.9832C94.8149 37.7104 95.5254 38.148 96.3182 37.1389C96.7558 36.5778 97.0389 36.0269 97.6361 35.6665C99.9065 34.292 102.182 36.2277 102.8 38.9099C103.309 38.2201 104.154 38.009 104.916 38.4054C106.151 39.0438 106.393 40.8457 106.311 42.3129C106.357 42.3695 106.368 42.4725 106.347 42.56Z" fill="#EDF1F4"/>
<path d="M68.492 40.4647C68.5589 39.9808 68.5795 39.4556 68.5126 39.3475C68.0389 38.6062 67.6528 38.5701 67.0145 38.0502C66.2577 37.4324 66.0826 36.6087 65.4442 35.857C64.1366 34.3229 62.1597 34.014 60.3011 34.6781C59.4517 34.9818 58.7052 35.4709 58.0205 36.0527C57.1504 36.794 56.4091 38.1995 55.2301 38.1583C53.1142 38.0862 51.5852 37.9832 49.7524 39.2085C49.6855 39.2085 49.6186 39.2188 49.5516 39.2651C49.1089 39.538 48.9133 40.0065 49.1604 40.4647H68.492Z" fill="#EDF1F4"/>
<path d="M104.084 36.3693C102.849 36.3847 101.629 36.6267 100.434 37.1621C99.9194 37.3938 99.4097 37.6718 98.9206 38.0013C98.3492 38.3874 97.7262 39.2008 97.1393 39.4634C96.47 39.7568 95.8059 38.9692 95.2396 38.6242C94.6373 38.2587 94.0092 37.9755 93.3657 37.7748C92.1404 37.3938 90.8945 37.3475 89.6332 37.5482C89.3603 37.5894 89.4324 38.1609 89.7053 38.1146C91.26 37.8674 92.7994 38.0476 94.2563 38.722C94.9307 39.0361 95.5176 39.5097 96.1509 39.9319C96.4392 40.1275 96.6039 40.2768 96.9591 40.1841C97.2989 40.0966 97.6233 39.7054 97.9167 39.4531C98.5036 38.9383 99.1111 38.4904 99.7546 38.1248C101.134 37.3372 102.586 36.9716 104.053 36.951C104.316 36.9459 104.362 36.3641 104.084 36.3693Z" fill="#53607D"/>
<path d="M91.5973 105.546C87.3449 105.598 83.7154 105.629 82.2121 105.644C81.7333 105.649 81.4656 105.649 81.4656 105.649V126.253H78.4694C78.4694 126.253 75.4268 109.361 73.352 104.887C70.9066 99.6053 71.267 86.8995 70.9066 86.6524C72.4614 83.4451 78.2377 101.505 81.373 101.459C83.1491 101.433 84.9767 101.546 86.6911 102.035C88.7401 102.617 90.3566 103.909 91.5973 105.546Z" fill="#4A2F3B"/>
<path d="M78.4332 125.661L77.4653 127.951H81.7487L81.4861 126.247L78.4332 125.661Z" fill="#29364C"/>
<path opacity="0.18" d="M81.4811 104.388C80.333 102.808 78.6753 101.701 77.0742 100.63C76.8786 100.501 76.6984 100.805 76.8734 100.944C76.7602 100.944 76.6469 101.037 76.6881 101.176C77.8722 105.232 79.0614 109.299 79.7873 113.47C80.1529 115.565 80.3382 117.665 80.4875 119.781C80.6162 121.696 80.8118 123.596 81.4657 125.408V105.644C81.4657 105.644 81.7282 105.644 82.2121 105.639C82.0113 105.207 81.7694 104.79 81.4811 104.388Z" fill="#0C1540"/>
<path d="M126.744 104.645C126.693 103.317 127.573 98.2462 127.851 92.5728C123.094 92.2227 118.363 93.0259 114.404 96.0582C111.413 98.3491 109.101 101.572 108.046 105.155C109.513 105.088 110.641 105.021 111.248 104.939C115.3 104.409 118.023 111.647 122.049 114.509C124.031 115.92 122.049 126.247 122.049 126.247H125.689C125.689 126.247 128.742 110.283 128.505 109.459C128.273 108.64 126.863 107.817 126.744 104.645Z" fill="#4A2F3B"/>
<path d="M122.137 108.409C123.254 107.389 123.913 106.149 123.913 104.8C123.913 101.366 119.645 98.5808 114.373 98.5808C109.107 98.5808 104.833 101.366 104.833 104.8C104.833 106.236 105.58 107.559 106.836 108.61C106.661 108.749 106.486 108.888 106.316 109.027C105.879 109.377 105.348 109.701 104.983 110.123C104.586 110.586 104.53 111.235 105.019 111.668C106.193 112.708 107.706 110.803 108.267 109.572C108.952 109.943 109.709 110.252 110.533 110.489C110.445 111.142 110.301 111.776 110.09 112.404C109.941 112.841 109.688 113.289 109.832 113.763C110.028 114.417 111.011 114.916 111.609 114.468C112.355 113.907 112.015 112.249 111.902 111.518C111.871 111.302 111.835 111.045 111.784 110.782C112.607 110.931 113.472 111.014 114.368 111.014C115.346 111.014 116.288 110.916 117.174 110.741C117.287 111.56 117.452 112.399 117.792 113.14C117.998 113.588 118.584 114.365 119.192 114.149C120.263 113.768 119.12 111.606 118.548 110.391C119.259 110.164 119.918 109.881 120.515 109.552C121.272 110.638 122.389 112.244 123.305 111.184C124.072 110.308 123.099 109.186 122.137 108.409Z" fill="#DE568E"/>
<path d="M152.377 103.755C146.555 101.114 144.197 94.802 142.122 89.2059C140.119 83.8105 137.828 78.2505 132.829 74.971C131.692 74.2245 130.631 76.0522 131.764 76.7935C142.034 83.5325 139.445 100.192 151.317 105.582C152.537 106.138 153.613 104.316 152.377 103.755Z" fill="#4A2F3B"/>
<path d="M157.17 106.622C157.067 106.519 156.82 106.458 156.707 106.396C156.388 106.216 156.099 105.979 155.837 105.727C154.637 104.563 153.324 102.365 151.373 103.281C149.659 103.729 149.994 106.128 150.802 107.297C151.842 108.8 153.994 109.099 155.61 108.486C156.135 108.285 157.278 107.77 157.371 107.111C157.412 106.869 157.325 106.777 157.17 106.622Z" fill="#29364C"/>
<path d="M135.028 125.285C134.914 125.892 134.847 126.253 134.847 126.253H131.208C131.208 126.253 133.19 115.92 131.208 114.515C127.506 111.884 124.901 105.552 121.359 104.965C121.05 104.913 120.736 104.903 120.407 104.944C119.593 105.047 117.889 105.14 115.67 105.217C113.451 105.294 110.713 105.361 107.866 105.418H107.86C99.3298 105.582 89.7645 105.649 89.7645 105.649V126.253H86.7733C86.7733 126.253 85.8518 116.121 83.6175 110.056C82.9225 108.167 82.0987 106.669 81.136 105.999C79.6224 104.944 78.2273 104.095 77.0071 102.905C74.9581 100.918 73.3879 97.9837 72.5076 91.5587C71.7817 86.2663 67.7094 83.2391 67.7094 83.2391C67.7094 83.2391 63.7453 69.3441 67.2667 69.6118C72.1575 69.9824 76.1525 70.4406 79.5761 70.9246C81.7589 71.2283 83.7101 71.5423 85.5172 71.8512C90.3822 72.6853 94.1816 73.4729 98.5731 73.8899C99.7726 74.0083 101.06 74.0289 102.419 73.9929C104.988 73.926 107.809 73.6377 110.733 73.3545C115.346 72.9066 120.242 72.4587 124.865 72.8551C126.847 73.025 128.783 73.3494 130.621 73.8899C135.671 75.3829 137.02 82.0138 137.092 88.7683C137.097 89.2677 137.097 89.7671 137.087 90.2665C136.984 96.8201 135.846 103.147 135.903 104.651C136.021 107.817 137.427 108.64 137.664 109.459C137.864 110.159 135.687 121.815 135.028 125.285Z" fill="#6C3E45"/>
<path d="M98.5679 73.8899C94.1816 73.4729 90.3771 72.6801 85.512 71.8461C85.8415 73.8899 85.5789 75.9235 84.956 78.0497C84.3897 79.9854 84.0396 81.8645 84.6729 83.8311C85.6819 86.9716 89.3166 89.9369 92.5033 87.6923C96.138 85.1388 96.1122 79.8052 99.1909 76.7678C100.159 75.8102 101.528 75.074 102.409 73.9929C101.055 74.0238 99.7675 74.0032 98.5679 73.8899Z" fill="white"/>
<path d="M85.3576 107.662C85.234 105.629 84.3382 103.374 83.669 101.459C83.0409 99.6465 82.2532 97.8652 81.1618 96.2795C80.6624 95.5536 79.813 94.0195 78.7164 94.2408C77.5014 94.4931 76.9403 96.7532 76.7652 97.721C76.4512 99.4508 76.6725 101.196 77.002 102.905C78.2221 104.095 79.6173 104.944 81.1309 105.999C82.0936 106.669 82.9173 108.167 83.6123 110.056C83.6947 110.056 83.7822 110.051 83.8646 110.036C85.0075 109.855 85.4194 108.676 85.3576 107.662Z" fill="white"/>
<path d="M130.621 73.8899C124.474 72.0725 117.323 72.7161 110.733 73.3493C110.929 75.2644 111.397 77.1333 112.468 78.7498C114.239 81.4217 117.272 82.5646 120.088 83.7899C123.403 85.2314 125.771 87.5378 128.649 89.6228C130.744 91.1467 133.324 92.1918 135.846 91.0129C136.305 90.8018 136.716 90.5495 137.087 90.2612C137.195 83.0228 136.042 75.491 130.621 73.8899Z" fill="white"/>
<path d="M115.13 102.627C113.009 97.8497 109.251 93.901 105.688 90.1686C104.025 88.4233 102.069 86.1015 99.6337 85.4271C98.3776 85.0821 97.9863 85.8595 98.0944 86.7502C98.0378 86.8068 98.0069 86.8892 98.012 86.9921C98.393 91.26 97.8628 96.3825 101.997 98.8845C103.886 100.027 106.296 100.764 106.954 103.116C107.217 104.048 107.428 104.81 107.855 105.418H107.861C110.713 105.366 113.446 105.299 115.67 105.217C115.784 104.362 115.475 103.41 115.13 102.627Z" fill="white"/>
<path d="M106.347 83.5995C105.672 82.786 104.535 81.4218 103.387 82.3124C102.717 82.8375 102.764 83.6973 103.248 84.2224C103.258 84.2842 103.279 84.346 103.335 84.4026C103.948 85.0564 104.597 85.6793 105.312 86.2199C105.724 86.5288 106.28 86.8531 106.795 86.5648C107.948 85.9316 106.887 84.2533 106.347 83.5995Z" fill="white"/>
<path d="M86.7116 125.661L85.7438 127.951H90.0271L89.7645 126.247L86.7116 125.661Z" fill="#29364C"/>
<path d="M122.106 125.661L120.917 127.951H126.157L125.833 126.247L122.106 125.661Z" fill="#29364C"/>
<path d="M131.218 125.661L130.034 127.951H135.27L134.95 126.247L131.218 125.661Z" fill="#29364C"/>
<path opacity="0.18" d="M106.311 102.596C103.165 102.653 99.9734 102.684 96.8845 101.963C95.4018 101.618 94.0426 100.944 92.5754 100.568C91.7723 100.367 90.65 100.11 90.2072 101.021C89.61 102.257 89.5174 103.981 89.5431 105.33C89.5586 106.03 89.6306 106.725 89.7593 107.41V105.644C89.7593 105.644 99.3299 105.577 107.855 105.412H107.86C110.707 105.361 113.446 105.294 115.665 105.212C117.884 105.134 119.588 105.042 120.402 104.939C120.726 104.898 121.045 104.903 121.354 104.959C116.829 102.375 111.392 102.509 106.311 102.596Z" fill="#0C1540"/>
<path opacity="0.18" d="M137.664 109.459C137.432 108.64 136.021 107.817 135.903 104.651C135.846 103.147 136.984 96.8201 137.087 90.2664C137.097 89.767 137.097 89.2677 137.092 88.7683C136.547 89.8443 136.016 90.9202 135.496 92.0065C134.848 93.3554 134.147 94.7093 133.736 96.156C132.835 99.2964 134.487 102.02 135.203 105.026C136.057 108.635 135.862 112.033 135.12 115.637C134.462 118.839 134.168 121.923 134.832 125.156C134.853 125.243 134.951 125.3 135.033 125.29C135.687 121.815 137.864 110.159 137.664 109.459Z" fill="#0C1540"/>
<path opacity="0.18" d="M110.728 73.3493C107.799 73.6376 104.983 73.9208 102.414 73.9877C101.06 74.0237 99.7675 74.0031 98.5679 73.8847C94.1765 73.4677 90.3771 72.68 85.512 71.846C83.705 71.5371 81.7538 71.2231 79.571 70.9193C79.1488 71.1768 78.876 71.5217 79.2775 71.9541C79.4011 72.088 79.5813 71.9696 79.5916 71.8203C85.2495 74.6261 91.4994 75.805 97.7597 76.2117C104.056 76.6236 110.635 76.6905 116.854 75.5167C119.635 74.9916 122.342 74.137 124.86 72.8448C120.237 72.4535 115.346 72.9014 110.728 73.3493Z" fill="#0C1540"/>
<path d="M64.0903 70.281C64.0903 70.281 57.6086 70.6723 56.198 70.8473C54.7874 71.0224 56.6356 74.1062 59.0141 73.9311C61.3926 73.7561 62.9319 72.1087 62.9319 72.1087L64.0851 71.1974V70.281H64.0903Z" fill="#4A2F3B"/>
<path d="M75.7769 70.281C75.7769 70.281 82.2585 70.6723 83.6691 70.8473C85.0797 71.0224 83.2315 74.1062 80.853 73.9311C78.4746 73.7561 76.9352 72.1087 76.9352 72.1087L75.782 71.1974V70.281H75.7769Z" fill="#4A2F3B"/>
<path d="M77.4191 75.6042C77.0742 80.9841 75.54 81.2312 74.7626 82.9919C74.5464 83.4759 74.3919 84.0782 74.3353 84.938C74.1603 87.579 73.6712 89.247 72.4202 90.1068C71.7972 90.5444 70.989 90.7761 69.9284 90.8379C66.7571 90.6628 65.7892 88.9021 65.5267 84.938C65.2641 80.9738 62.8857 82.472 62.4429 75.6042C62.3348 73.9465 62.6282 72.6337 63.1585 71.5938C64.3683 69.2101 66.8034 68.268 68.4818 67.9282C69.1047 67.8047 69.6195 67.7635 69.9284 67.7635C70.9787 67.7635 74.4691 68.2423 76.2916 70.909C77.0742 72.0417 77.5478 73.5604 77.4191 75.6042Z" fill="#EDF1F4"/>
<path d="M71.0611 77.7717C71.3597 79.3573 72.6622 80.5105 73.697 81.6946C74.495 79.4294 75.3187 77.2208 75.2672 74.9813C75.2518 74.1061 75.0767 73.3133 74.809 72.6131C73.0174 74.0495 70.5669 75.11 71.0611 77.7717Z" fill="#6C3E45"/>
<path d="M77.419 75.6043C77.3984 75.9543 77.3676 76.2787 77.3367 76.5824C77.3212 76.7111 77.3109 76.845 77.2955 76.9685C77.2852 77.0458 77.2749 77.123 77.2646 77.1951C77.2594 77.262 77.2492 77.3289 77.2389 77.3907C77.2183 77.5348 77.1925 77.6738 77.1719 77.8128C77.1565 77.8901 77.1462 77.9673 77.1307 78.0394C77.0432 78.4873 76.9454 78.8785 76.8476 79.2286C76.8218 79.311 76.7961 79.3933 76.7652 79.4757C76.6211 79.903 76.4666 80.2531 76.3019 80.562C76.2504 80.6598 76.2041 80.7473 76.1526 80.8246C76.1217 80.8812 76.0857 80.9378 76.0548 80.9893C76.0187 81.0408 75.9878 81.0974 75.9518 81.1437C75.5863 81.7049 75.2104 82.1219 74.917 82.6728C74.8655 82.7706 74.814 82.8684 74.7677 82.9714C74.7677 82.9765 74.7626 82.9817 74.7626 82.9868C74.5206 82.7346 74.3095 82.436 74.0985 82.1682C73.9697 82.0087 73.8359 81.8491 73.702 81.6946C74.5 79.4294 75.3237 77.2208 75.2722 74.9813C75.2568 74.1061 75.0817 73.3133 74.814 72.6131C74.814 72.608 74.814 72.608 74.814 72.608C75.4112 72.1343 75.9312 71.6195 76.2504 70.9863C76.2659 70.9554 76.2813 70.9297 76.3019 70.9091C76.3431 70.9657 76.3791 71.0275 76.4203 71.0841C76.4666 71.1562 76.5078 71.2231 76.549 71.3003C76.5902 71.3673 76.6262 71.4393 76.6674 71.5063C76.791 71.7379 76.8991 71.9799 76.9969 72.2425C77.0175 72.2991 77.0381 72.3557 77.0587 72.4123C77.0793 72.4741 77.0999 72.5359 77.1205 72.5977C77.1462 72.6698 77.1668 72.747 77.1874 72.8242C77.208 72.9014 77.2286 72.9787 77.2492 73.061C77.2646 73.1125 77.2749 73.1691 77.2801 73.2155C77.2955 73.2875 77.3109 73.3648 77.3264 73.4471C77.3418 73.5398 77.3573 73.6325 77.3727 73.7251V73.7303C77.383 73.8075 77.3933 73.8899 77.3985 73.9671C77.4448 74.4819 77.4602 75.0174 77.419 75.6043Z" fill="#4A2F3B"/>
<path d="M74.0985 82.1683C74.3096 82.4411 74.5258 82.7346 74.7626 82.9868C74.5464 83.4708 74.3919 84.0731 74.3353 84.9329C74.1603 87.5739 73.6712 89.2419 72.4202 90.1017C71.823 87.1209 72.7445 84.3666 73.6969 81.6895C73.8359 81.8542 73.9698 82.0087 74.0985 82.1683Z" fill="#D3E0EA"/>
<path d="M76.2505 70.9914C75.9313 71.6195 75.4113 72.1395 74.8141 72.6131C73.5116 69.2153 69.9336 67.7686 69.9336 67.7686C70.9838 67.7686 74.4743 68.2474 76.2968 70.9142C76.2814 70.9348 76.2659 70.9605 76.2505 70.9914Z" fill="#D3E0EA"/>
<path d="M74.2734 85.6897C73.6402 82.7449 69.9335 85.0204 69.9335 85.0204C69.9335 85.0204 66.2268 82.7449 65.5935 85.6897C65.5935 85.6897 64.6926 90.8327 69.9335 90.8327C75.1744 90.8327 74.2734 85.6897 74.2734 85.6897Z" fill="#3D495F"/>
<path d="M68.317 86.395C68.8678 86.9459 69.0429 87.6615 68.7082 88.0013C68.3736 88.3359 67.6529 88.1609 67.1071 87.61C66.5563 87.0591 66.3812 86.3435 66.7159 86.0089C67.0505 85.6743 67.7661 85.8493 68.317 86.395Z" fill="#29364C"/>
<path d="M71.5501 86.395C70.9993 86.9459 70.8242 87.6615 71.1589 88.0013C71.4935 88.3359 72.2142 88.1609 72.76 87.61C73.3108 87.0591 73.4859 86.3435 73.1512 86.0089C72.8166 85.6743 72.101 85.8493 71.5501 86.395Z" fill="#29364C"/>
<path d="M73.6866 68.7468C73.6866 68.7468 76.0085 66.9295 76.4924 65.8329C76.9764 64.7312 77.3419 69.7095 75.087 70.5899C75.0921 70.5847 74.0934 70.2965 73.6866 68.7468Z" fill="#3D495F"/>
<path d="M67.7096 77.4319C67.7096 77.4319 67.7147 73.823 63.9668 75.5374C63.9668 75.5374 66.7417 75.7124 67.7096 77.4319Z" fill="#29364C"/>
<path d="M72.1576 77.4319C72.1576 77.4319 72.1473 73.823 75.9004 75.5374C75.9004 75.5374 73.1255 75.7124 72.1576 77.4319Z" fill="#29364C"/>
<path d="M68.4869 67.9334C66.8085 68.268 64.3734 69.2102 63.1636 71.599C64.1675 72.4433 66.0157 72.3609 67.1277 71.9233C67.7918 71.6607 68.3839 71.1614 68.6259 70.4715C68.9193 69.6478 68.6207 68.7726 68.4869 67.9334Z" fill="#6C3E45"/>
<path d="M66.1805 68.7468C66.1805 68.7468 63.8586 66.9295 63.3747 65.8329C62.8908 64.7312 62.5252 69.7095 64.7802 70.5899C64.7802 70.5847 65.7738 70.2965 66.1805 68.7468Z" fill="#3D495F"/>
<path d="M136.109 127.313C136.16 126.742 136.104 126.201 135.918 125.599C135.877 125.465 135.728 125.367 135.589 125.413C134.431 125.789 133.365 126.304 132.351 126.958C132.304 126.417 131.898 125.938 131.3 125.753C130.24 125.429 129.421 126.294 128.845 127.123C128.768 126.937 128.685 126.757 128.577 126.572C128.51 126.453 128.33 126.392 128.212 126.474C128.124 126.536 128.047 126.597 127.964 126.659C128.356 125.527 128.608 124.085 127.532 123.761C126.394 123.416 125.39 124.651 124.69 125.856C124.644 125.207 124.355 124.646 123.563 124.507C122.317 124.286 121.838 125.846 121.627 127.025C121.447 126.747 121.241 126.494 121.004 126.242C120.875 126.108 120.68 126.16 120.582 126.299C120.453 126.489 120.36 126.659 120.288 126.834C119.784 125.784 118.965 124.487 117.889 124.394C116.7 124.291 116.206 126.139 115.845 127.251C115.351 126.803 114.589 126.803 114.064 127.195C113.869 126.5 113.276 125.954 112.494 125.892C111.711 125.83 111.094 126.263 110.713 126.87C110.419 125.233 110.368 123.72 109.086 122.592C108.514 122.088 107.927 122.556 107.845 122.695C106.888 124.276 106.692 125.784 106.558 127.596C106.177 126.984 105.75 126.412 105.261 125.866C105.183 125.779 105.034 125.763 104.936 125.825C104.262 126.242 103.763 126.762 103.413 127.411C103.155 126.747 102.589 126.222 101.791 126.35C101.255 126.438 100.864 126.814 100.699 127.277C100.112 126.35 99.4741 125.455 98.7636 124.621C98.2797 124.054 97.6465 123.287 96.8176 123.673C95.5409 124.27 95.8292 125.83 96.4161 127.081C95.5203 126.402 94.4288 125.763 93.6463 126.047C93.6154 125.908 93.5794 125.763 93.5382 125.619C93.497 125.485 93.3477 125.388 93.2087 125.434C92.0504 125.81 90.9847 126.325 89.9705 126.978C89.9241 126.438 89.5174 125.959 88.9202 125.774C87.8546 125.449 87.0411 126.314 86.4645 127.143C86.3924 126.958 86.3049 126.778 86.1968 126.592C86.1299 126.474 85.9497 126.412 85.8313 126.494C85.7438 126.556 85.6666 126.618 85.5842 126.68C85.9755 125.547 86.2277 124.106 85.1517 123.781C84.014 123.436 83.0101 124.672 82.3099 125.877C82.2687 125.228 81.9753 124.667 81.1824 124.528C79.9366 124.307 79.4578 125.866 79.2467 127.045C79.0665 126.767 78.8606 126.515 78.6238 126.263C78.4951 126.129 78.2994 126.18 78.2016 126.319C78.0729 126.51 77.9802 126.68 77.9082 126.855C77.4036 125.805 76.5851 124.507 75.5143 124.415C74.3199 124.312 73.8308 126.16 73.4704 127.272C72.9762 126.824 72.2091 126.824 71.6891 127.215C71.4935 126.52 70.9014 125.975 70.1189 125.913C69.3364 125.851 68.7186 126.283 68.3376 126.891C68.0442 125.254 67.9927 123.74 66.7108 122.613C66.1393 122.108 65.5524 122.577 65.4701 122.716C64.5125 124.296 64.3168 125.805 64.183 127.617C63.802 127.004 63.3747 126.433 62.8856 125.887C62.8084 125.799 62.6591 125.784 62.5613 125.846C61.8869 126.263 61.3875 126.783 61.0374 127.431C60.78 126.767 60.2137 126.242 59.4157 126.371C58.8803 126.458 58.4891 126.834 58.3243 127.298C57.7374 126.371 57.099 125.475 56.3886 124.641C55.9046 124.075 55.2714 123.308 54.4425 123.694C53.1658 124.291 53.4541 125.851 54.041 127.102C53.7475 126.881 53.4386 126.664 53.1195 126.479C53.0886 126.206 53.0319 125.928 52.9444 125.64C52.9032 125.506 52.7539 125.408 52.6149 125.455C51.4566 125.83 50.3909 126.345 49.3767 126.999C49.3303 126.458 48.9237 125.98 48.3265 125.794C47.2659 125.47 46.4473 126.335 45.8707 127.164C45.7987 126.978 45.7111 126.798 45.603 126.613C45.5361 126.494 45.3559 126.433 45.2375 126.515C45.15 126.577 45.0728 126.639 44.9904 126.7C45.3816 125.568 45.6339 124.126 44.5579 123.802C43.4202 123.457 42.4163 124.693 41.7161 125.897C41.6749 125.249 41.3815 124.687 40.5887 124.548C39.3428 124.327 38.864 125.887 38.6529 127.066C38.4727 126.788 38.2668 126.536 38.03 126.283C37.9013 126.15 37.7056 126.201 37.6078 126.34C37.4791 126.531 37.3865 126.7 37.3144 126.875C36.8099 125.825 35.9913 124.528 34.9153 124.435C33.7261 124.332 33.2318 126.18 32.8715 127.292C32.3772 126.845 31.6153 126.845 31.0953 127.236C30.8997 126.541 30.3076 125.995 29.5251 125.933C28.7426 125.872 28.1248 126.304 27.7438 126.911C27.4504 125.274 27.3989 123.761 26.117 122.633C25.5455 122.129 24.9586 122.597 24.8763 122.736C23.9187 124.317 23.7231 125.825 23.5892 127.637C23.2082 127.025 22.7809 126.453 22.2918 125.908C22.2146 125.82 22.0653 125.805 21.9675 125.866C21.2931 126.283 20.7937 126.803 20.4436 127.452C20.1862 126.788 19.6199 126.263 18.8219 126.392C18.2865 126.479 17.8953 126.855 17.7305 127.318C17.1436 126.392 16.5052 125.496 15.7948 124.662C15.3108 124.095 14.6776 123.328 13.8488 123.714C12.5771 124.312 12.8603 125.872 13.4472 127.123C12.3764 126.304 11.0121 125.532 10.2553 126.361C9.41614 127.272 10.1369 128.24 10.8731 129.033H51.4823H53.7578H93.8728H94.3671H136.758C137.777 128.466 136.933 127.097 136.109 127.313Z" fill="#CCCC60"/>
<path d="M157.69 126.7C157.186 125.671 156.388 124.471 155.353 124.379C154.164 124.276 153.669 126.124 153.309 127.236C152.815 126.788 152.053 126.788 151.528 127.179C151.332 126.484 150.74 125.939 149.958 125.877C149.175 125.815 148.557 126.247 148.176 126.855C147.883 125.218 147.831 123.704 146.549 122.577C145.978 122.072 145.391 122.541 145.309 122.68C144.351 124.26 144.156 125.769 144.022 127.581C143.641 126.968 143.213 126.397 142.724 125.851C142.647 125.763 142.498 125.748 142.4 125.81C141.726 126.227 141.226 126.747 140.876 127.395C140.619 126.731 140.052 126.206 139.254 126.335C138.719 126.422 138.328 126.798 138.163 127.262C137.576 126.335 136.938 125.439 136.227 124.605C135.743 124.039 135.11 123.272 134.281 123.658C133.01 124.255 133.293 125.815 133.88 127.066C132.809 126.247 131.445 125.475 130.688 126.304C129.849 127.215 130.569 128.183 131.306 128.976H158.02C157.917 128.209 157.829 127.447 157.69 126.7Z" fill="#CCCC60"/>
<path d="M82.476 41.7937H65.8054C66.1941 40.2474 67.5605 39.4415 68.7355 40.0444C69.348 38.9323 70.1196 37.7234 71.1856 37.3891C72.016 37.1298 72.6639 37.5484 73.3795 36.5738C73.7741 36.0365 74.0332 35.5023 74.5721 35.1556C76.6335 33.8311 78.6978 35.696 79.2573 38.2763C79.7196 37.6109 80.4882 37.411 81.1773 37.7889C82.2963 38.4012 82.5143 40.1381 82.4436 41.5469C82.4848 41.6125 82.4936 41.7094 82.476 41.7937Z" fill="white"/>
<path d="M101.064 48.3047C101.13 47.8296 101.15 47.314 101.084 47.2079C100.619 46.4801 100.24 46.4447 99.6136 45.9342C98.8706 45.3277 98.6988 44.519 98.072 43.7811C96.7882 42.2749 94.8474 41.9716 93.0228 42.6236C92.1888 42.9218 91.456 43.402 90.7837 43.9731C89.9296 44.7009 89.2017 46.0808 88.0443 46.0403C85.967 45.9696 84.4659 45.8685 82.6665 47.0714C82.6008 47.0714 82.5351 47.0815 82.4694 47.127C82.0348 47.3949 81.8427 47.8548 82.0853 48.3047H101.064Z" fill="white"/>
<path d="M302.621 48.4461V128.602H178.305V48.4461L185.139 36.4201L191.372 25.4467L199.953 10.355L203.174 4.6841L204.126 3.01306H276.801L277.753 4.6841L280.244 9.06558L288.825 24.1572L295.058 35.1307L302.621 48.4461Z" fill="#E1E9EF"/>
<path d="M227.169 48.4461V128.602H102.852V48.4461L109.686 36.4201L115.919 25.4467L124.5 10.355L127.721 4.6841L128.673 3.01306H201.348L202.3 4.6841L204.791 9.06558L213.372 24.1572L219.605 35.1307L227.169 48.4461Z" fill="#EDF1F4"/>
<path d="M115.919 25.4467V128.602H109.686V36.4201L115.919 25.4467Z" fill="#E1E9EF"/>
<path d="M130.733 3.01306V128.602H124.5V10.355L128.673 3.01306H130.733Z" fill="#E1E9EF"/>
<path d="M145.547 3.01306H139.314V128.602H145.547V3.01306Z" fill="#E1E9EF"/>
<path d="M160.361 3.01306H154.128V128.602H160.361V3.01306Z" fill="#E1E9EF"/>
<path d="M175.162 3.01306H168.929V128.602H175.162V3.01306Z" fill="#E1E9EF"/>
<path d="M189.977 3.01306H183.743V128.602H189.977V3.01306Z" fill="#E1E9EF"/>
<path d="M204.791 9.06558V128.602H198.557V3.01306H201.348L204.791 9.06558Z" fill="#E1E9EF"/>
<path d="M219.605 35.1307V128.602H213.372V24.1573L219.605 35.1307Z" fill="#E1E9EF"/>
<path d="M243.574 35.1307V128.602H237.34V24.1573L243.574 35.1307Z" fill="#D3E0EA"/>
<path d="M259.301 35.1307V128.602H253.067V24.1573L259.301 35.1307Z" fill="#D3E0EA"/>
<path d="M275.014 35.1307V128.602H268.781V24.1573L275.014 35.1307Z" fill="#D3E0EA"/>
<path d="M290.741 35.1307V128.602H284.508V24.1573L290.741 35.1307Z" fill="#D3E0EA"/>
<path opacity="0.18" d="M227.169 48.4461V58.709L199.627 10.7234H130.394L102.852 58.4853V48.4461L109.686 36.4201L115.919 25.4466L124.5 10.355L127.721 4.68408H202.3L204.791 9.06557L213.372 24.1572L219.605 35.1307L227.169 48.4461Z" fill="#0C1540"/>
<path d="M203.082 0H279.435L309.285 52.0249L304.121 55.0511L232.932 52.0249L203.082 0Z" fill="#D34747"/>
<path d="M100.44 57.9721L95.2756 54.9459L126.951 0H203.082L232.932 52.0249L227.755 55.0511L199.627 6.02618H130.394L100.44 57.9721Z" fill="#B93232"/>
<path d="M191.724 58.5643H138.31V128.589H191.724V58.5643Z" fill="#53607D"/>
<path d="M191.724 58.5643H157.245V128.589H191.724V58.5643Z" fill="#3D495F"/>
<path d="M192.728 56.5248H136.745V60.6168H192.728V56.5248Z" fill="white"/>
<path d="M139.901 128.97H109.62V57.1958H139.901V128.97ZM112.294 126.155H137.227V60.0115H112.294V126.155Z" fill="white"/>
<path d="M138.571 91.6686H110.964V94.4843H138.571V91.6686Z" fill="white"/>
<path d="M137.54 93.9843L109.933 59.5115L111.981 57.6958L139.588 92.1686L137.54 93.9843Z" fill="white"/>
<path d="M111.981 93.9843L109.933 92.1686L137.54 57.6958L139.588 59.5115L111.981 93.9843Z" fill="white"/>
<path d="M137.54 128.47L109.933 93.9843L111.981 92.1686L139.588 126.655L137.54 128.47Z" fill="white"/>
<path d="M111.981 128.47L109.933 126.655L137.54 92.1686L139.588 93.9843L111.981 128.47Z" fill="white"/>
<path d="M220.661 128.97H190.381V57.1958H220.661V128.97ZM193.067 126.155H218.001V60.0115H193.067V126.155Z" fill="white"/>
<path d="M219.331 91.6686H191.724V94.4843H219.331V91.6686Z" fill="white"/>
<path d="M218.301 93.9843L190.707 59.5115L192.741 57.6958L220.348 92.1686L218.301 93.9843Z" fill="white"/>
<path d="M192.741 93.9843L190.707 92.1686L218.301 57.6958L220.348 59.5115L192.741 93.9843Z" fill="white"/>
<path d="M218.301 128.47L190.707 93.9843L192.741 92.1686L220.348 126.655L218.301 128.47Z" fill="white"/>
<path d="M192.741 128.47L190.707 126.655L218.301 92.1686L220.348 93.9843L192.741 128.47Z" fill="white"/>
<path d="M227.755 55.0512H304.121L309.285 52.0249H232.932L227.755 55.0512Z" fill="#B93232"/>
<path d="M102.917 126.641C102.839 125.72 102.93 124.839 103.217 123.865C103.283 123.641 103.517 123.484 103.752 123.562C105.617 124.168 107.325 124.997 108.942 126.062C109.02 125.181 109.672 124.405 110.624 124.115C112.333 123.589 113.637 124.997 114.563 126.326C114.68 126.023 114.824 125.734 114.993 125.431C115.097 125.234 115.397 125.141 115.58 125.273C115.723 125.365 115.854 125.47 115.971 125.576C115.345 123.734 114.941 121.405 116.675 120.878C118.501 120.326 120.105 122.313 121.24 124.273C121.305 123.22 121.774 122.313 123.052 122.089C125.047 121.734 125.817 124.26 126.156 126.168C126.443 125.72 126.769 125.299 127.16 124.905C127.369 124.694 127.682 124.773 127.838 124.997C128.047 125.299 128.19 125.576 128.307 125.865C129.116 124.168 130.433 122.063 132.154 121.918C134.071 121.747 134.854 124.747 135.428 126.536C136.223 125.812 137.449 125.812 138.284 126.444C138.597 125.312 139.549 124.444 140.8 124.339C142.052 124.234 143.043 124.944 143.656 125.931C144.126 123.273 144.204 120.826 146.264 118.997C147.177 118.181 148.116 118.944 148.26 119.155C149.798 121.707 150.111 124.155 150.333 127.089C150.946 126.102 151.624 125.168 152.42 124.286C152.537 124.141 152.785 124.115 152.941 124.22C154.024 124.905 154.819 125.747 155.393 126.786C155.81 125.707 156.71 124.865 158.001 125.076C158.862 125.22 159.488 125.826 159.748 126.576C160.687 125.076 161.717 123.628 162.852 122.273C163.621 121.352 164.652 120.115 165.982 120.747C168.029 121.72 167.573 124.233 166.634 126.26C168.068 125.155 169.829 124.128 171.081 124.589C171.133 124.365 171.185 124.128 171.263 123.891C171.328 123.668 171.563 123.51 171.798 123.589C173.663 124.194 175.371 125.023 176.988 126.089C177.066 125.207 177.718 124.431 178.67 124.141C180.379 123.615 181.683 125.023 182.609 126.352C182.726 126.049 182.869 125.76 183.039 125.457C183.143 125.26 183.443 125.168 183.626 125.299C183.769 125.391 183.9 125.497 184.017 125.602C183.391 123.76 182.987 121.431 184.721 120.905C186.547 120.352 188.151 122.339 189.285 124.299C189.351 123.247 189.82 122.339 191.098 122.115C193.093 121.76 193.863 124.286 194.202 126.194C194.489 125.747 194.815 125.326 195.206 124.931C195.414 124.72 195.727 124.799 195.884 125.023C196.093 125.326 196.236 125.602 196.353 125.891C197.162 124.194 198.479 122.089 200.2 121.944C202.117 121.773 202.9 124.773 203.474 126.562C204.269 125.839 205.495 125.839 206.329 126.47C206.642 125.339 207.594 124.47 208.846 124.365C210.098 124.26 211.089 124.97 211.702 125.957C212.172 123.299 212.25 120.852 214.31 119.023C215.223 118.207 216.175 118.971 216.305 119.181C217.844 121.734 218.157 124.181 218.379 127.115C218.992 126.128 219.67 125.194 220.465 124.312C220.583 124.168 220.831 124.141 220.987 124.247C222.069 124.931 222.865 125.773 223.439 126.812C223.856 125.733 224.756 124.891 226.047 125.102C226.908 125.247 227.533 125.852 227.794 126.602C228.733 125.102 229.763 123.655 230.898 122.299C231.667 121.378 232.698 120.142 234.028 120.773C236.075 121.747 235.619 124.26 234.68 126.286C235.149 125.931 235.645 125.576 236.153 125.286C236.205 124.839 236.297 124.391 236.44 123.918C236.505 123.694 236.74 123.536 236.975 123.615C238.84 124.22 240.548 125.049 242.165 126.115C242.243 125.233 242.895 124.457 243.847 124.168C245.556 123.641 246.86 125.049 247.785 126.378C247.903 126.076 248.046 125.786 248.216 125.483C248.32 125.286 248.62 125.194 248.803 125.326C248.946 125.418 249.077 125.523 249.194 125.628C248.568 123.786 248.164 121.457 249.898 120.931C251.724 120.378 253.328 122.365 254.462 124.326C254.527 123.273 254.997 122.365 256.275 122.142C258.27 121.786 259.04 124.312 259.379 126.22C259.665 125.773 259.992 125.352 260.383 124.957C260.591 124.747 260.904 124.826 261.061 125.049C261.269 125.352 261.413 125.628 261.53 125.918C262.339 124.22 263.656 122.115 265.377 121.97C267.294 121.799 268.077 124.799 268.65 126.589C269.446 125.865 270.672 125.865 271.506 126.497C271.819 125.365 272.771 124.497 274.023 124.391C275.275 124.286 276.266 124.997 276.879 125.983C277.349 123.326 277.427 120.878 279.487 119.049C280.4 118.234 281.339 118.997 281.482 119.207C283.021 121.76 283.334 124.207 283.556 127.141C284.169 126.155 284.847 125.22 285.642 124.339C285.76 124.194 286.007 124.168 286.164 124.273C287.246 124.957 288.042 125.799 288.616 126.839C289.033 125.76 289.933 124.918 291.224 125.128C292.084 125.273 292.71 125.878 292.971 126.628C293.91 125.128 294.94 123.681 296.075 122.326C296.844 121.405 297.874 120.168 299.205 120.799C301.252 121.773 300.796 124.286 299.857 126.312C301.578 124.997 303.756 123.734 304.982 125.076C306.325 126.549 305.177 128.115 303.991 129.404H238.774H235.123H170.755H169.959H101.939C100.244 128.497 101.587 126.286 102.917 126.641Z" fill="#CCCC60"/>
</svg>
